<svg width="32" height="32" viewBox="0 0 24 32" fill="none" xmlns="http://www.w3.org/2000/svg">
  <path d="M17.4545 0H15.2727V2.13333H17.4545V0Z" fill="black" />
  <path d="M19.6364 2.1333H17.4546V4.26663H19.6364V2.1333Z" fill="black" />
  <path d="M21.8183 4.2666H19.6365V6.39993H21.8183V4.2666Z" fill="black" />
  <path d="M23.9999 6.40002H21.8181V8.53336H23.9999V6.40002Z" fill="black" />
  <path d="M19.6364 2.1333H17.4546V4.26663H19.6364V2.1333Z" fill="#8B4513" />
  <path d="M21.8183 4.2666H19.6365V6.39993H21.8183V4.2666Z" fill="#8B4513" />
  <path d="M17.4546 4.2666H8.72729V8.53327H17.4546V4.2666Z" fill="#2EA043" />
  <path d="M21.8182 6.40002H17.4546V10.6667H21.8182V6.40002Z" fill="#2EA043" />
  <path d="M8.72723 6.40002H6.54541V8.53336H8.72723V6.40002Z" fill="black" />
  <path d="M23.9999 8.53333H21.8181V10.6667H23.9999V8.53333Z" fill="black" />
  <path d="M10.909 8.53333H6.54541V12.8H10.909V8.53333Z" fill="#663399" />
  <path d="M17.4545 8.53333H13.0908V12.8H17.4545V8.53333Z" fill="#663399" />
  <path d="M6.54559 8.53333H4.36377V10.6667H6.54559V8.53333Z" fill="black" />
  <path d="M13.091 8.53333H10.9092V10.6667H13.091V8.53333Z" fill="black" />
  <path d="M19.6364 8.53333H17.4546V10.6667H19.6364V8.53333Z" fill="black" />
  <path d="M6.54552 12.8H2.18188V17.0667H6.54552V12.8Z" fill="#663399" />
  <path d="M13.0909 12.8H8.72729V17.0667H13.0909V12.8Z" fill="#663399" />
  <path d="M19.6363 12.8H15.2727V17.0667H19.6363V12.8Z" fill="#663399" />
  <path d="M2.18182 12.8H0V14.9334H2.18182V12.8Z" fill="black" />
  <path d="M8.72723 12.8H6.54541V14.9334H8.72723V12.8Z" fill="black" />
  <path d="M15.2726 12.8H13.0908V14.9334H15.2726V12.8Z" fill="black" />
  <path d="M21.8183 12.8H19.6365V14.9334H21.8183V12.8Z" fill="black" />
  <path d="M8.72741 17.0667H4.36377V21.3333H8.72741V17.0667Z" fill="#663399" />
  <path d="M15.2728 17.0667H10.9092V21.3333H15.2728V17.0667Z" fill="#663399" />
  <path d="M4.3637 17.0667H2.18188V19.2H4.3637V17.0667Z" fill="black" />
  <path d="M10.9091 17.0667H8.72729V19.2H10.9091V17.0667Z" fill="black" />
  <path d="M17.4545 17.0667H15.2727V19.2H17.4545V17.0667Z" fill="black" />
  <path d="M10.909 21.3333H6.54541V25.5999H10.909V21.3333Z" fill="#663399" />
  <path d="M17.4545 21.3333H13.0908V25.5999H17.4545V21.3333Z" fill="#663399" />
  <path d="M6.54559 21.3333H4.36377V23.4666H6.54559V21.3333Z" fill="black" />
  <path d="M13.091 21.3333H10.9092V23.4666H13.091V21.3333Z" fill="black" />
  <path d="M19.6364 21.3333H17.4546V23.4666H19.6364V21.3333Z" fill="black" />
  <path d="M13.0909 25.6H8.72729V29.8666H13.0909V25.6Z" fill="#663399" />
  <path d="M8.72723 25.6H6.54541V27.7333H8.72723V25.6Z" fill="black" />
  <path d="M15.2726 25.6H13.0908V27.7333H15.2726V25.6Z" fill="black" />
  <path d="M13.0909 29.8667H6.54541V32H13.0909V29.8667Z" fill="black" />
  <path d="M10.9091 10.6667H8.72729V12.8001H10.9091V10.6667Z" fill="#8B53C6" />
  <path d="M17.4545 10.6667H15.2727V12.8001H17.4545V10.6667Z" fill="#8B53C6" />
  <path d="M6.54559 14.9333H4.36377V17.0667H6.54559V14.9333Z" fill="#8B53C6" />
  <path d="M13.091 14.9333H10.9092V17.0667H13.091V14.9333Z" fill="#8B53C6" />
  <path d="M19.6364 14.9333H17.4546V17.0667H19.6364V14.9333Z" fill="#8B53C6" />
  <path d="M8.72723 19.2H6.54541V21.3333H8.72723V19.2Z" fill="#8B53C6" />
  <path d="M15.2726 19.2H13.0908V21.3333H15.2726V19.2Z" fill="#8B53C6" />
  <path d="M10.9091 23.4667H8.72729V25.6H10.9091V23.4667Z" fill="#8B53C6" />
  <path d="M17.4545 23.4667H15.2727V25.6H17.4545V23.4667Z" fill="#8B53C6" />
  <path d="M13.091 27.7334H10.9092V29.8667H13.091V27.7334Z" fill="#8B53C6" />
</svg>